<?xml version="1.0" standalone="no"?>
<!DOCTYPE svg PUBLIC "-//W3C//DTD SVG 1.1//EN" "http://www.w3.org/Graphics/SVG/1.1/DTD/svg11.dtd" >
<svg>
<metadata>
Created by FontForge 20090622 at Sun Dec 27 06:16:35 2015
 By deploy user
(c) Jakob Fischer at www.pizzadude.dk - DO NOT DISTRIBUTE WITHOUT AUTHOR'S PERMISSION!
</metadata>
<defs>
<font id="SkaterDudes" horiz-adv-x="500" >
  <font-face 
    font-family="SkaterDudes"
    font-weight="400"
    font-stretch="normal"
    units-per-em="1000"
    panose-1="0 0 4 0 0 0 0 0 0 0"
    ascent="800"
    descent="-200"
    x-height="800"
    cap-height="801"
    bbox="-1 -201 1345.17 809"
    underline-thickness="20"
    underline-position="-123"
    unicode-range="U+0020-U+007A"
  />
<missing-glyph 
d="M63 0v809h375v-809h-375zM125 63h250v684h-250v-684z" />
    <glyph glyph-name=".notdef" 
d="M63 0v809h375v-809h-375zM125 63h250v684h-250v-684z" />
    <glyph glyph-name=".null" horiz-adv-x="0" 
 />
    <glyph glyph-name="nonmarkingreturn" 
 />
    <glyph glyph-name="space" unicode=" " 
 />
    <glyph glyph-name="exclam" unicode="!" horiz-adv-x="342" 
d="M332 692v-113q0 -19 -2 -58t-2 -58v-64q0 -42 -15 -196q1 -4 1 -10q0 -11 -3 -28q-3 -5 -20 -10.5t-24 -5.5q-71 1 -196 5q-25 1 -45 10q-11 5 -9 22q1 3 3 8q-2 116 -1 142q3 42 10 160q0 18 2 69l7 179q1 26 3 35q4 5 11 16q5 2 11 2q8 0 23.5 -5.5t24.5 -4.5l86 3
q47 2 86 11q8 1 38 -6q3 -4 7 -11q4 -54 4 -92zM327 -60q0 -42 -27 -77q-38 -49 -103 -56q-20 -4 -41 -4q-74 0 -126 52q-30 30 -30 92q0 84 55 123q34 24 65 27q40 4 125 -21q25 -10 50 -39.5t31 -55.5q1 -4 1 -41z" />
    <glyph glyph-name="quotedbl" unicode="&#x22;" horiz-adv-x="618" 
d="M604 674q5 -68 -10 -130q-9 -37 -36 -87q-35 -64 -59 -61q-12 -3 -20 -1q-14 3 -22 9q-26 16 -49 90q-20 62 -24.5 96t-11.5 125q-2 5 -3 13q-2 10 3 16q15 20 32 23q3 1 11 0t11 -1q5 0 17 2t18 2q58 -4 81 -11q47 -15 56 -60q3 -9 6 -25zM324 634q-5 -74 -30 -149
q-13 -41 -30 -56q-9 -8 -40 -13q-32 1 -54 47q-11 22 -26 74q-10 33 -28 110l-2 3q-2 3 -2 5v14l13 10q3 3 3 14t1 12q3 7 10 16q34 16 92 22q55 5 76 -15q21 -42 17 -94z" />
    <glyph glyph-name="numbersign" unicode="#" horiz-adv-x="888" 
d="M896 519q0 -12 -2.5 -35.5t-2.5 -34.5q-2 -69 -1 -80q-11 -16 -31 -22q-2 -1 -40 -8l-62 -13q-13 -3 -18 -7q-3 -26 -6 -60q1 -1 3 -4q2 0 66 3q45 2 67 -4q7 -6 9 -13q8 -27 12 -67q7 -64 5 -72q-3 -1 -9 -5q-2 -1 -5 -7q-16 -8 -44 -13q-33 -5 -45 -9.5t-44 -8.5
q-1 1 -8 -6q5 -129 1 -167q-1 -9 0 -40q0 -3 -2 -7q-20 -20 -29 -20q-96 0 -126 -5t-46 2q0 3 -7 21t-4 21l-10 26q1 5 0 15q-3 36 -17 97q-1 8 -9 17q-16 5 -67 5q3 -52 8 -128q1 -14 3 -33q3 -26 0 -33q-1 -2 -16 -14q-7 -6 -17 -6q-9 0 -29 1.5t-31 1.5q-104 -3 -122 1v4
q-2 5 -9 13l2 6q-4 27 -7 65q0 1 1 7q-1 18 -2 28l2 6q0 25 -7 81q-1 2 -8 3q-56 -1 -146 5q-12 12 -17 51l-8 59l-5 13q1 8 -5 19q10 22 26 29q32 14 127 40q5 27 5 50q0 24 -5 42q-32 0 -103 -1q-7 6 -15 7l-9 14q-4 7 -14 9q-2 2 -5 9q-1 19 -10 62q-8 40 -8 63
q0 14 2 27q8 23 65 23q33 0 57 3q4 3 4 11q0 16 -1 14q5 46 2 83l-5 57q0 5 20 14q24 8 154 48q8 2 22 0q15 -3 20 -11q22 -37 25 -98q1 -30 4 -108q33 -3 86 -1q5 8 10 31q0 19 15 89l1 21q2 28 3 33q6 37 18 46q6 4 54 11q23 3 87 13q53 9 56 -11q1 -7 2 -12
q12 -30 11 -69q-1 -75 -9 -143q7 -4 152 -18q16 -2 36 -11q5 -5 5 -15zM473 236q2 32 -4 92h-10q-7 1 -9 1q7 0 -63 -7q-1 -54 2 -82q45 -5 84 -4z" />
    <glyph glyph-name="plus" unicode="+" horiz-adv-x="805" 
d="M824 279q0 -6 -11.5 -15.5t-18.5 -9.5q-29 -3 -95 -19q-61 -14 -96 -16q15 -69 35 -202q-1 -4 -2 -12q-13 -13 -21 -16q-19 -3 -63 -14q-37 -13 -105 -31q-11 0 -33 -5t-33 -5q-3 0 -9 1.5t-9 1.5q-2 4 -7 11l-31 120q1 1 2 3q-4 12 -9 37q0 1 -2 3l-3 25q-1 1 -2 0
q-4 7 -3 14q-4 4 -3 13q-1 2 -6 6q-22 10 -63 17q-49 7 -65 12q-10 -2 -31 -1q-8 5 -27 11q-7 2 -9 9q1 -3 1 20q0 6 -2.5 18.5t-2.5 18.5q-9 64 -14 126q-2 22 0 31q1 5 3 8q16 19 44 15q2 1 5 3q44 4 115 6q6 1 9 5q2 18 5 52q2 29 6 106q2 26 -3 39q7 6 19 13
q49 8 125 25q45 10 63 9q23 -1 35 -23q15 -27 22 -107l7 -76q1 -11 0 -34q15 0 71 4q44 3 72 1q20 -2 72 -6q39 -3 55 -82q6 -55 13 -110z" />
    <glyph glyph-name="comma" unicode="," horiz-adv-x="305" 
d="M288 154q11 -56 -4 -106q-10 -34 -62 -120q-15 -25 -27 -32q-65 -39 -112 -62q-2 -1 -19 0q-3 3 -8 7q1 5 -3 7q3 6 13 18v7q3 10 18 25h2q3 1 4 2q9 8 15 21l8 17q0 1 2 3q4 9 8 26q8 33 5 47q0 2 -37 6q-23 2 -43.5 22t-24.5 42q-3 14 -3 28q0 62 57 106q36 28 71 28
q5 0 27 -3q8 11 22 10q28 -2 58 -37q27 -32 33 -62z" />
    <glyph glyph-name="hyphen" unicode="-" horiz-adv-x="431" 
d="M414 354q2 -5 0 -21q-8 -11 -35 -13l-118 -7h-77q-115 0 -131 12q-5 16 -5 40v57q0 32 -1 63q0 2 -1.5 6.5t-1.5 6.5q0 -4 1 19q3 4 11 10q7 3 21 1q7 -1 13 -2q2 3 7 5q9 1 33 4q136 25 234 21q19 -1 23 -6q0 -2 2 -3q4 -41 11 -124q3 -16 9 -58q2 -3 5 -11z" />
    <glyph glyph-name="hyphen" unicode="&#x2010;" horiz-adv-x="431" 
d="M414 354q2 -5 0 -21q-8 -11 -35 -13l-118 -7h-77q-115 0 -131 12q-5 16 -5 40v57q0 32 -1 63q0 2 -1.5 6.5t-1.5 6.5q0 -4 1 19q3 4 11 10q7 3 21 1q7 -1 13 -2q2 3 7 5q9 1 33 4q136 25 234 21q19 -1 23 -6q0 -2 2 -3q4 -41 11 -124q3 -16 9 -58q2 -3 5 -11z" />
    <glyph glyph-name="period" unicode="." horiz-adv-x="380" 
d="M358 -7q13 -47 0 -80q-25 -64 -97 -74q-22 -3 -30 -3q-102 9 -133 80q-12 26 -9 47q-1 8 -1 23q3 24 12 43q2 4 9 14q35 49 90 49q50 0 96 -26q51 -28 63 -73z" />
    <glyph glyph-name="zero" unicode="0" horiz-adv-x="852" 
d="M858 345q-2 -166 -47 -275l-35 -84q-4 -10 -42 -57q-15 -19 -34 -40q-45 -38 -125 -63q-41 -13 -75 -21h-77q-99 17 -159 39q-162 60 -231 197q-34 68 -32 123q2 58 11 138q19 44 62 170l15 46q11 22 68 114q43 69 122 114q6 5 16 12q20 11 60 29q9 4 31 4q6 0 25 -9
q33 24 84 20q192 -14 268 -108q5 -11 17 -33q4 -4 10 -12q2 -4 0 -9q2 -1 10 -14q5 -11 15 -29q2 -2 2 -5t-2 -6q9 -13 11 -21q8 -20 18 -63q15 -107 14 -157zM456 516l-27 6q-2 -1 -24 -27q-46 -55 -53 -92l56 56q36 38 48 57zM568 225q0 47 -15 94l-131 -134q-1 -5 0 -10
q5 -18 21 -43q21 -13 38 -17q7 -3 14 -3q21 0 43 23q20 20 26 42q4 15 4 48z" />
    <glyph glyph-name="one" unicode="1" horiz-adv-x="571" 
d="M575 -122q-1 -7 -24 -15q-11 -6 -56 -13q-56 -8 -63 -10q-112 -28 -148 -28q-41 0 -35 1q-49 -12 -59 -10q-13 3 -12 35q1 35 0 45v173q0 5 3 73q4 95 5 139l1 55q0 -5 3 7q2 38 2 90q-13 -2 -75 -36q-24 -13 -46 -13q-33 0 -41 29q2 7 2 23q0 10 1 59q0 38 -9 56l-12 13
q-13 13 -13 22q0 12 28 36q17 14 25.5 23t60.5 76q15 27 19 33q13 22 24 27q17 3 50 6q183 0 284 27q3 1 9 -1t8 -2q15 0 18 -1q9 -4 16 -10q6 -10 5 -20q-1 -18 -5 -71q-1 -1 -3 -5q0 -1 1 -5t1 -6q-3 -11 -3 -9v-155q0 1 6 -97l6 -98v-90q0 -3 1.5 -9t1.5 -9
q2 -88 10 -230q0 -7 6 -41q0 -3 6 -32q4 -20 1 -32z" />
    <glyph glyph-name="two" unicode="2" horiz-adv-x="687" 
d="M712 -57q0 -2 -6 -16q0 -1 3 -4q-6 0 -8 -1q-7 -11 -15 -13q-45 -10 -104 -19q-27 -4 -105 -17q-89 -19 -268 -52q-23 -7 -45 -11q-60 -10 -78 -8q-14 1 -18 3q-10 2 -11 9l-9 68q-3 11 -8 41q-7 7 -14 23q-5 44 2 94l10 72q3 24 25 82q2 6 6 16q27 50 64 101
q13 18 25 28q36 30 70 52l51 30q38 21 48 32q22 23 16 52q-3 15 -16.5 27.5t-28.5 12.5q-25 0 -69 -21q-9 -4 -64 -48q-39 -6 -42 -6q-14 2 -54 63q-69 104 -69 134q0 6 3 9q17 18 40 16q18 17 26 22q140 88 281 88q94 0 185 -40l14 -8q73 -32 110 -131q3 -5 8 -16
q12 -37 12 -68q0 -65 -40 -115q-28 -34 -95 -80q-9 -4 -20 -11q-25 -17 -86 -62q-18 -16 -56 -57q-3 -7 -23 -34l2 -2q37 11 108 26q69 8 177 8q22 0 25 -19z" />
    <glyph glyph-name="three" unicode="3" horiz-adv-x="732" 
d="M733 152q-5 -119 -75 -202l-39 -47q-23 -26 -45 -40q-81 -51 -152 -58q-40 -4 -62 -2q-27 2 -72 11l2 1q-6 0 -18 1q-22 6 -51 18q-3 -1 -6 0q-6 7 -25 16q-2 0 -2 -2q-1 3 -13 9q-38 33 -58 60l-8 18q-8 9 -21 28q-6 12 0 23q36 67 72 124q23 36 57 36q5 0 26 -3
q34 -37 79 -37q51 0 78 48q8 14 8 34q0 34 -23 59t-57 25q-44 0 -119 -48q-20 -5 -33 -5q-18 0 -32 11q-6 42 -41 114q-5 9 -17 35q-5 11 4 19q21 18 91 66q57 40 87 71q-67 -7 -223 -19q2 1 -32 7q-4 8 -12 15q0 5 4 87q3 17 3 29v48q0 33 9 55q5 12 27 12q16 0 21 -6
q1 0 121 12q78 9 249 24q28 2 56 2h32q21 -2 28 -15q9 -28 30 -86q5 -9 13 -27l33 -97q0 -7 -1 -20l-40 -24l-82 -49q-9 -4 -25 -18q19 -1 57 -8q4 -2 11 -5q85 -16 149 -136q0 -3 1 -8q40 -72 36 -156z" />
    <glyph glyph-name="four" unicode="4" horiz-adv-x="988" 
d="M1011 194q-3 -5 -11 -12q-79 -29 -174 -31q0 -18 1 -49l1 -31v-70q0 32 2 -42.5t1 -84.5q3 -4 6 -6q3 -7 3 -13q0 -19 -19.5 -31t-40.5 -14q-10 10 -12 11q-79 -7 -159 -15q-14 -1 -79 -3l-40 -1q-22 2 -33 15q-3 5 -6 17q1 37 -1 87q-1 26 -1 35v87q0 23 -8 72
q-58 2 -156 -9l-170 -19q-42 -5 -67 -3q-4 0 -20 12q-1 59 -16 169q-6 42 -11 87q78 59 118 183q4 8 10 26q5 27 11 67q0 15 8 47q6 9 20 9h18l165 52q12 4 24 0l18 -6q9 -12 10 -20q2 -13 3 -69q0 14 -7 -69q-4 -48 -47 -151q2 -1 5 -3q15 2 49 2q11 0 32.5 1t32.5 1
q6 11 8 28q9 74 15 170q2 26 0 64l-1 22q0 1 -2 4q-1 1 1 16v34q0 21 17 26q9 2 36 1l42 -2q16 -1 105 9l29 5q19 4 29 4q26 0 36 -16q2 -7 6 -31q1 -5 1 -62v-77q0 49 -3 -70l-3 -147l196 -8q8 0 18 -16q1 -61 10 -182z" />
    <glyph glyph-name="five" unicode="5" horiz-adv-x="763" 
d="M764 138q-8 -100 -39 -159q-36 -71 -117 -113q-66 -35 -116 -48q-34 -9 -105 -16h-77q-25 0 -115 19q-76 24 -124 72q-4 6 -1 15l39 98q2 9 16 56q7 25 41 24q22 -1 70 -9q45 -8 70 -8q52 0 86 28q8 7 9 21q1 30 -27 60t-58 35q-12 2 -25 2q-5 0 -81 -14q-18 -3 -50 -14
q-24 -8 -40 -8q-14 0 -29 6q-11 1 -28 13q-7 28 -14 86q-1 46 -2 53q-4 22 -18 122q-2 19 -9 71q-17 127 -19 166q0 9 7 18q1 2 21 16q12 1 34 9q19 -3 44 -3q62 0 163 15l293 42q10 1 40 3q47 4 55 1q10 -5 14 -12q-1 -25 4 -117q4 -69 10 -102q3 -16 -5 -26q-7 -5 -23 -11
q-30 -2 -89 -9q-27 -7 -80 -17q-41 -3 -124 -14q0 10 5 -58l83 6q63 5 104 -11q15 -7 58.5 -25.5t44.5 -19.5q26 -13 38 -30q45 -64 52 -98q17 -81 14 -115z" />
    <glyph glyph-name="six" unicode="6" horiz-adv-x="743" 
d="M750 234q1 -11 -6 -67q-27 -219 -253 -326q-92 -44 -168 -38q-231 18 -289 161q-1 3 -4 4q-28 77 -29 189q0 37 4 87q6 68 17 83q0 5 2 16l37 96q2 4 53 91q41 70 77 124q21 31 75 83q60 58 86 65q3 1 11.5 -1.5t11.5 -2.5q38 0 43 -1q8 -6 19 -11q3 -1 16 -6
q42 -30 52 -28q45 -24 58 -32q38 -25 44 -44q5 -16 -5 -22q-53 -33 -85 -94q-19 -29 -51 -89q3 -3 10 -1q15 4 34 4q62 0 145 -47q12 -7 36 -26q24 -26 44 -89q12 -38 15 -78zM430 213q-3 9 -6 13q-10 12 -33 26q-15 9 -18 10q-16 -2 -35 -34q-15 -25 -21 -48q-3 -11 -3 -21
q2 -18 23.5 -36.5t38.5 -14.5q27 1 52 38q16 24 2 67z" />
    <glyph glyph-name="seven" unicode="7" horiz-adv-x="619" 
d="M633 575q1 -3 0 -14q-2 -10 -4 -12q-35 -27 -62 -54q-86 -86 -118 -256q-2 -9 -7 -35q-9 -56 -9 -87v-193q1 -17 5 -59q-1 6 -4 -11q-26 -15 -37 -15q-23 1 -61 -7q-43 -9 -60 -10q-23 -1 -76 -6l-25 -3q-19 -6 -36 -10q-5 -1 -16 4q-1 9 -16 12.5t-17 8.5q-4 8 10 113
q3 14 8 53q28 242 93 375q0 6 13 23q1 5 3 14q17 27 41 82q-38 -1 -107 -16q-73 -16 -107 -18q-3 1 -8 1q-20 3 -31 12q-2 2 -5 26v78q3 30 6 144q1 24 37 19q6 -1 16 -2q17 2 121 26q33 8 53 10q14 1 54 5q55 8 213 28q22 3 33 -13q7 -45 39 -104z" />
    <glyph glyph-name="eight" unicode="8" horiz-adv-x="774" 
d="M773 212q0 -2 2 -29q1 -14 0 -33q-1 -18 -6 -36q-29 -102 -83 -150q-7 -8 -20 -20q-60 -52 -143 -93q-100 -49 -170 -49q-26 0 -77 8q-5 2 -15 5q-59 11 -136 57q-44 26 -79 77.5t-41 101.5q-5 41 -5 31q0 33 17.5 86t36.5 81q5 11 15 28q39 47 87 79l92 60
q-18 11 -33 14q-35 8 -69.5 47t-32.5 73l2 35l28.5 63.5t56.5 77.5q89 83 191 74q61 -5 168 -32q14 -3 90 -44q19 -10 52 -64q5 -8 7 -22q8 -60 -15 -119q-10 -26 -87 -108q62 -32 108 -81q59 -61 59 -118zM478 556q0 24 -13 44.5t-35 20.5q-5 0 -11 -1q-13 -4 -27 -31
q-9 -17 -7 -31q2 -17 24 -28t41 -10q28 -2 28 36zM425 124q3 12 0 22q-10 35 -31 56q-10 5 -70 28q-1 -1 -3.5 -3t-3.5 -3q-28 -39 -28 -67q0 -29 24 -49t54 -20q12 0 22 4q8 1 21.5 13t14.5 19z" />
    <glyph glyph-name="nine" unicode="9" horiz-adv-x="732" 
d="M733 460q0 -73 -41 -234q-37 -144 -66 -183q-2 -10 -57 -127l-34 -73q-1 -6 -6 -18q-9 -12 -44 -22q-67 33 -132 50q-18 10 -59 27l-28 -2q-13 5 -21 9q-13 7 -14 15q-1 10 8 31q-1 2 -1 6q0 20 62 161q35 80 48 125q6 0 -41 -7q-35 -5 -73 -7q-89 -4 -164 60
q-49 42 -59 90q-1 4 -4 17q-8 37 -8 78q0 108 65 197q97 133 271 149q35 3 71 -4q6 -1 24 -5q24 -1 71 -8q88 -25 148 -85q63 -65 74 -152q10 -82 10 -88zM453 458v18q0 45 -31 58q-9 4 -24 2q-7 2 -5 2q-10 -17 -23 -51q-5 -21 -5 -22q1 -19 17.5 -32t35.5 -13q7 0 12 3
q5 0 10 5q12 20 13 30z" />
    <glyph glyph-name="colon" unicode=":" horiz-adv-x="405" 
d="M384 512q14 -51 0 -88q-26 -69 -107 -81q-25 -4 -33 -3q-75 6 -115 42q-18 16 -31 45t-10 52q-1 8 -1 25q3 25 13 48q2 5 9 15q39 54 99 54q56 0 106 -28q57 -31 70 -81zM396 138q6 -99 -124 -120q-137 -5 -177 74q-15 29 -10 67q5 42 43 81t79 40q26 0 56 -6
q11 -2 21 -5q10 -7 30 -17q29 -11 42 -25q35 -37 38 -84q0 -2 2 -5z" />
    <glyph glyph-name="semicolon" unicode=";" horiz-adv-x="384" 
d="M364 538q12 -44 0 -75q-10 -26 -36.5 -46t-54.5 -24q-19 -3 -29 -2q-95 7 -125 75q-11 24 -8 44q-1 7 -1 21q3 20 11 41q3 6 8 13q33 46 84 46t92 -22q46 -26 59 -71zM372 248q12 -57 -4 -109q-11 -36 -63 -122q-16 -26 -28 -33q-74 -43 -115 -64q-2 -1 -19 0q-3 4 -9 7
q2 6 -3 7q4 7 14 19q-1 3 -1 7q4 7 19 26h3l4 2q4 4 13 19.5t9 19.5q0 1 3 3q4 8 8 27q8 34 5 48v2q-8 1 -38 4q-24 2 -44.5 21.5t-24.5 43.5q-3 15 -3 29q0 63 58 109q37 29 73 29q4 0 28 -3q7 11 21 10q30 -3 60 -38q27 -32 34 -64z" />
    <glyph glyph-name="equal" unicode="=" horiz-adv-x="489" 
d="M54 778q1 -2 -4 -7v8q1 0 4 -1zM474 615q-7 -16 -17 -106v-75q3 -10 3 -18q0 -23 -36 -23q-9 0 -27 2t-27 2q-16 1 -57 4q-13 1 -56 2q-41 1 -97 -2q-32 -2 -63 3q-49 8 -45 28q7 37 16 132q-1 10 0 32q5 3 12 11q1 4 4 11q46 17 119 24q53 5 99 5h35q33 0 116 -8
q10 -2 19 -10q3 -4 2 -14zM496 143q-5 -7 -13 -9q-138 -26 -293 -26q-12 0 -56.5 -2t-71.5 -1q-2 0 -7.5 3t-7.5 3q1 1 3 4l-1 3q-2 2 -2 3q1 10 1 32q0 2 -3 5q4 34 4 79q0 6 1.5 17.5t1.5 17.5q-1 85 0 88q1 8 11 11q15 4 28 0q3 -3 26 -6q7 -2 33 -5l80 -2q61 1 136 2
q24 -1 77 -11q20 -4 41 -10q8 -2 11 -8q0 -10 -1.5 -30.5t-1.5 -30.5v-61q0 3 2 -44q1 -4 2 -11q2 -8 0 -11z" />
    <glyph glyph-name="question" unicode="?" horiz-adv-x="360" 
 />
    <glyph glyph-name="A" unicode="A" horiz-adv-x="639" 
d="M630 34q0 -4 -2 -24q-2 -4 -4 -6q-4 -18 -13 -54t-24 -54t-49 -30q-5 -3 -18 -9q-69 -20 -119 -27q-20 -2 -78 -10q-73 -11 -129 -17q-73 -1 -104 5q-64 13 -71 60q-5 19 -12 58q-1 6 -3 25q0 2 1 4.5t1 4.5q-1 21 -1 52q0 15 7 70q3 22 9 62q5 14 14 44q0 6 1 18
q16 44 26 57q59 77 247 86q15 -1 40 6q7 5 7 26v110q0 33 -15 98q-1 4 -5 10q-16 6 -38 -3q-32 -13 -46 -33q-3 -4 -7 -61q-2 -32 -5 -47q-5 -28 -19 -38t-45 -12q-12 -1 -43 -3q-14 -2 -53 -7q-12 1 -36 -1q-2 4 -10 10q-10 2 -27 14q-6 10 -6 54v40q0 98 20 152q3 4 7 11
q10 29 77 59q80 36 110 40q14 3 57 11q126 22 211 14q52 -5 68 -25q12 -15 25 -70q4 -36 13 -99q8 -56 16 -119q2 -4 4 -11q4 -29 13 -113l4 -92q-1 -11 -1 -18q5 -119 5 -162v-56zM406 102q1 12 -3 75q1 10 -4 24q-16 11 -47 15q-6 1 -21 -4q-10 -2 -23 -11q-3 -13 -9 -34
q-9 -107 -8 -126q0 -7 3 -10h24q7 0 15 1h8q17 0 49 5q11 0 16 65z" />
    <glyph glyph-name="B" unicode="B" horiz-adv-x="554" 
d="M564 331q-1 -19 -12 -145q-1 -24 -8 -93q-4 -35 -17 -134l-3 -3q-5 -46 -27 -87q-3 -6 -14 -13q-37 -23 -100 -36q-91 -18 -143 -18h-68q4 0 -18 2q-98 9 -139 37q-12 8 -15 36q-2 22 0 60q5 88 9 174q0 5 1.5 15t1.5 16q0 35 2 116l3 122q1 31 0 35q3 20 8 67
q9 91 9 134v88q2 1 2 5v5q0 3 -2 4q3 5 2 29q-1 21 4 27q9 11 31 7q7 -1 10 -2q64 21 120 21q44 0 48 -1q26 -1 47 -12q7 -4 20 -40q3 -8 8 -34q2 -6 5 -16l12 -94v-60q0 -32 24 -31q15 1 31 3l22 3h57q8 -2 29 -6q41 -8 48 -54q2 -3 4 -9q11 -47 8 -118zM336 117
q-5 0 -4 -1q-1 6 2 7q1 4 -1 8q1 18 0 35t-5 39q-1 1 -3 2q1 2 1 6l-8 44q-7 30 -14 39v7q-18 3 -26 -22q-6 -19 -4 -39q4 -41 5 -66q-1 -15 0 -34q0 -5 6 -55q4 -3 11 -3q18 0 40 16v17z" />
    <glyph glyph-name="C" unicode="C" horiz-adv-x="585" 
d="M579 153q2 -49 0 -143q-1 -4 -6.5 -47.5t-14.5 -67.5q-17 -43 -58 -62q-55 -26 -191 -29q-77 -2 -150 4q-29 2 -38 4q-76 14 -83 79q-3 7 -7 22q-8 47 -8 63v92q-2 30 -3 56q-1 12 -6 83q-5 65 -5 118v84q0 16 -3 47t-3 47.5t-2 51.5t-2 52q0 44 10 74q15 46 157 89
q37 11 90 21l101 9q22 2 33 2q99 0 116 -80q2 -14 9 -51q20 -113 20 -127q0 -57 -54 -78q-44 -17 -92 -23q-25 -3 -37 0l-11 8q-1 6 -10 36q-3 27 -17 81q-30 3 -53 -13q-1 -2 -3 -27q0 -2 -2 -4q-3 -48 -3 -81q0 -27 2 -43v-124q4 -18 4 -51v-51q0 -19 3 -33q5 -22 18 -24
q30 -4 43 0q3 1 7 54q7 73 11 105q16 54 96 67q67 11 87 6q12 -3 12 -11q10 -4 24 -19q8 -24 14 -75q2 -17 5 -91z" />
    <glyph glyph-name="D" unicode="D" horiz-adv-x="650" 
d="M648 28q-3 -45 -27 -100q-19 -30 -56 -46q-21 -9 -72 -20l-97 -21q-25 -6 -218 -32q-6 0 -18.5 -3.5t-19.5 -3.5q-52 0 -64 2q-43 7 -59 35q-19 57 -13 128q2 19 5 84q1 11 5 51q0 1 -2 4q2 24 7 65q0 2 -1 5q5 26 21 143q5 38 19 79q18 55 54 71q52 23 131 23
q26 0 89 -4q2 5 -3 31l-12 41q-3 22 -11 65q-17 60 -15 86q0 7 5 33q0 31 8 37q29 22 106 22q68 0 121 -27q19 -10 26 -37q3 -23 7 -47l-1 -2q5 -15 19 -109l3 -3q20 -104 41 -240q8 -53 20 -207q5 -63 2 -103zM421 126q0 31 -32 152q-2 4 -10 9t-12 4q-41 -8 -50 -24
q-22 -40 -24 -105q-2 -88 1 -104q2 -10 50 -8q33 1 64 8q13 24 13 68z" />
    <glyph glyph-name="E" unicode="E" horiz-adv-x="610" 
d="M596 -51q-1 -16 -17 -74q-2 -17 -16 -45q-25 -26 -97 -28q-33 -1 -135 6q-32 3 -125 10q-71 5 -120 28q-71 32 -79 93l-4 29q0 51 -2 71q5 5 10 16q8 82 9 126q1 51 6 114q4 42 30 202l7 44l4 31q9 55 21 98q11 28 10 31q2 -1 4 2q-3 39 51 69q68 23 178 28q21 1 45 0
q14 -2 78 -14l2 -2q27 -7 57 -26q34 -22 43 -43q2 -2 6 -5q8 -24 9 -29q9 -42 18 -145q3 -36 2 -66q-1 -67 -9 -201q-2 -19 -12 -23q-16 -6 -54 -10q-45 -5 -57 -7q-32 -6 -115 -23q-37 -8 -82 -22v-51q0 -1 2 -36q0 -7 3 -14q10 -16 54 -21q1 1 4 3q1 6 12 86q1 4 5 11v3
q2 2 5 6q66 35 198 44q12 1 21 -15q4 -3 10 -8q8 -10 10 -24q1 -5 8 -153q3 -57 2 -66zM362 378l-9 96q-8 70 -24 86q-8 2 -15 0q-15 -5 -19 -10q-35 -52 -36 -199q3 3 6 5q33 6 97 22z" />
    <glyph glyph-name="F" unicode="F" horiz-adv-x="569" 
d="M578 515q0 -3 -1 -33q-5 -5 -16 -13q-12 -2 -33 -7q-58 -27 -109 -27q-37 0 -44 9q-5 6 -24 97q0 7 -7 19q-33 -6 -33 -52q0 -14 5 -42.5t5 -42.5q0 -7 2 -21t2 -21q1 -1 5 0q42 10 77 12q39 3 49 -19q7 -26 17 -80q3 -31 5 -40q5 -22 -6 -31q-20 -16 -116 -39
q-2 -1 -6 -4q5 -50 7 -81q1 -1 2 -3q11 -86 16 -155q4 -57 0 -82q-2 -12 -29 -24q-37 -11 -94 -16q-7 -1 -58 -10q-33 -6 -57 -6q-18 0 -31 4q0 4 -7 8q0 3 2 8q-4 9 -8 28q-1 19 3 74q9 123 1 254q-5 2 -60 8q-36 4 -36 25q0 5 1 10q-1 -4 -1 19q0 5 1 14t1 14l-1 8
q0 25 8 61q2 11 13 30q3 3 16 5q7 2 26 4q11 1 29 -1q1 20 -6 74q-3 23 -3 92q0 11 1.5 31.5t1.5 31.5q1 0 3 2q3 41 17 66q3 5 18 19q46 43 134 70q39 12 149 34q40 8 59 5q23 -4 41 -23.5t23 -42.5q2 -2 4 -6l22 -121q3 -17 12 -57z" />
    <glyph glyph-name="G" unicode="G" horiz-adv-x="597" 
d="M587 -6q0 -43 -1 -69q-3 -78 -65 -93q-8 -4 -23 -10l-25 -3q-23 -9 -77 -17q-42 -6 -184 11q-14 2 -52 6q-45 4 -54 6q-55 13 -65 63q-6 6 -6 35q0 34 4 65q1 4 -1 6q1 18 2 52q-1 14 5 65q2 17 9 41q10 17 63 27q20 4 82 -1q26 -2 34 -4q16 -6 21 -23l9 -59q1 -1 2 -3
q3 -26 17 -76q23 2 29 4q22 10 18 87q-1 9 -5 18v8q-1 1 -3 6l-10 41q-10 24 -33 29q-6 0 -52 2q-21 1 -61.5 -5.5t-59.5 -6.5q-60 0 -81 66q-5 16 -14 75v11q-8 68 -8 140v125q1 69 17 120q3 5 10 14q2 5 8 14q28 23 70 31q5 1 75 8h49q13 3 66 -2q22 -2 37 -7h24
q49 0 65 -2q33 -6 57 -27q27 -25 38 -52q7 -17 21 -72q3 -27 12.5 -103t25.5 -230q1 -10 7 -147q-1 -1 -1 -9l2 -6q2 -68 2 -149zM266 577q0 5 -7 15q-10 2 -16 0q-11 -4 -12 -5q-24 0 -21 1q0 -2 -4 -37q-2 -17 -2 -37q0 -24 6 -65q8 -54 8 -60q8 -2 21 -1q11 1 20 2
q14 103 7 187z" />
    <glyph glyph-name="H" unicode="H" horiz-adv-x="661" 
d="M648 -68q0 -5 2 -19t1 -22q-1 -13 -8 -20q-10 -12 -25 -19q-48 -14 -81 -25q-18 -18 -47 -18h-49q-56 0 -78 21q-13 83 -45 249q1 4 0 12q-2 7 -11 19q-7 5 -23 3q-15 -2 -15 -25q0 -8 1 -19q1 -4 3 -10q1 -15 11 -90l-2 -3q12 -93 6 -126q-4 -23 -30 -33q-16 -6 -28 -6
h-80q-30 0 -65 7q-50 10 -54 26q1 13 -3 37q0 1 2 4q-2 15 -2 53v108q0 29 2 52q-3 30 -8 100q0 -3 3 25l-3 3q0 -8 -2 143q0 20 -2 48l-2 32v126q0 1 -2 4q-2 27 -6 61q0 8 -3 23q1 2 2 5q0 6 -5 41q-5 41 33 56q29 8 88 21q16 2 53 4q31 2 52 -9q15 -26 22 -51q0 -5 2 -19
q8 -69 22 -202q1 -24 5 -87l3 -12q1 0 3 -2q13 -4 25 -3q1 4 4 10v52q-1 9 -3 34q-1 6 2 7q0 1 -1 1q-2 7 1 9q-3 7 -6 35q0 9 -1 23q2 18 -3 30h2v8q-1 8 -1 15v26q0 6 -1 18t-1 18q1 11 7 82q14 33 58 36q13 1 75 2q13 2 55 0q11 1 39 -6q5 -2 8 -10q9 -17 22 -59l6 -41
q4 -25 19 -108q4 -41 10 -119q1 -13 6 -73q1 -4 3 -13l31 -316q5 -47 6 -92z" />
    <glyph glyph-name="I" unicode="I" horiz-adv-x="387" 
d="M288 738q4 -12 -1 -48.5t-11 -49.5q0 -4 -1 -11q-5 -19 -19 -57q0 -29 -32 -62q-4 -4 -22 -8q-11 -5 -49 5q-11 3 -53 23q-10 6 -40 19q-8 3 -25 15q-23 16 -29 25q-8 13 -5 37q1 3 5 17q0 11 37 113q3 10 12 33q4 5 21 6.5t20 5.5q18 0 33 -2q65 -9 122 -31
q31 -12 37 -30zM385 -73q0 -4 -8 -13q-21 -24 -36 -34q-10 -4 -26 -13q-47 -27 -89 -41q-16 -8 -74 -24h-26q-22 0 -27 8q-18 29 -25 105q-2 23 -11 158q-1 2 -3 5q1 7 -4 47q-2 15 -3 31q-5 85 -5 120v60q0 62 -2 81q-2 2 -8 10q-1 3 5 16q6 4 37 11q82 19 108 19h47
q32 -1 45 -25q6 -11 15 -54q3 -6 7 -18q4 -21 13 -63q7 -18 10 -32q29 -126 49 -293q1 -8 6 -31q5 -19 5 -30z" />
    <glyph glyph-name="J" unicode="J" horiz-adv-x="618" 
d="M605 164q5 -78 -20 -259q-6 -12 -13 -29q-23 -57 -87 -63l-48 -7q-27 -4 -49 -4q-47 0 -83 2l-54 3h-73q-4 0 -11 1.5t-11 1.5q-125 1 -152 60q-2 4 -1 55l1 -2q2 2 2 8q0 5 -4 6q-1 2 2 6q-2 8 -2 20q0 17 4 43q1 2 -2 5q3 4 3 10q0 3 -1 8l4 60q3 38 4 80l2 2
q5 18 3 32q1 3 1 13q5 20 23 36.5t38 19.5q62 9 80 9q39 0 59 -13q5 -3 18 -75q12 -65 25 -126q6 -4 11 -2q6 1 15 6q27 27 27 72q0 13 -2.5 39t-2.5 39q0 3 -4 18q-1 6 -1 10q-2 32 -12 111q-3 23 -4 19q1 8 1 9q-1 5 -7 56l-17 152q-2 4 -4 12q-4 64 -10 116l-5 42
q0 14 37 28q18 7 54 6q87 -2 121 -7q64 -9 99 -38q1 -1 6 -16q3 -8 7 -32q21 -121 24 -237q0 -10 2 -42q1 -26 1 -42v-68q0 -3 1.5 -9.5t1.5 -9.5v-65q0 -22 3 -70z" />
    <glyph glyph-name="K" unicode="K" horiz-adv-x="764" 
d="M774 588q3 -25 -1 -35l-35 -69l-74 -145l-28 -58l-39 -75q-6 -12 -4 -24q1 -6 4 -11l37 -38q5 -5 65 -88q25 -35 25 -55q0 -6 -2 -10q-18 -32 -104 -124q-40 -42 -86 -42q-19 0 -45 25q-29 27 -41 42l-123 154q-9 14 -26 32q-5 -27 -5 -91v-85q0 -89 -90 -89
q-9 0 -26.5 1t-25.5 1t-22 2t-21 2q-88 2 -105 58q-3 10 -2 36q1 23 4 61q1 8 3 32l8 184q0 8 9 113q-1 12 -1 22q0 21 3 79q5 67 21 299q0 12 2 48q3 6 5 37q1 2 6 9l6 3q11 -1 29 1q4 4 14 9q13 3 155 -10q13 -1 61 -14q23 -6 37 -22q2 -4 2 -6q4 -13 12 -172
q2 -31 -5 -84q-8 -58 -8 -83q0 -6 1 -14q24 22 64 65l49 55l63 69l17 19q5 1 8 5q22 28 47 55q19 21 48 34q3 2 20 0q16 -2 21 -5q24 -13 37 -41q11 -6 22.5 -27t13.5 -35z" />
    <glyph glyph-name="L" unicode="L" horiz-adv-x="660" 
d="M681 101q1 -23 1 -38q0 -78 -21 -153q-7 -24 -81 -43l-93 -20q-21 -5 -93 -21q-77 -7 -157 -20l-86 -3q-60 -2 -82 4q-42 11 -53 54q-5 10 -10 29q-4 54 -4 127q0 147 3 391q3 14 5 35q3 75 13 226q2 21 9 81q2 13 20 22q3 2 16 -1q15 26 54 27q32 0 95 3q17 2 20 2
q56 0 73 -22q13 -16 32 -159l11 -81q0 -3 17 -98q2 -12 7 -44.5t15 -107.5q1 -23 7 -88q1 -6 8 -6h8l-8 -1q4 -2 16 -2q16 0 44 1q24 1 75 0q10 0 30 2t30 2q3 0 9.5 1.5t9.5 1.5q24 0 44 -17q12 -10 13 -16z" />
    <glyph glyph-name="M" unicode="M" horiz-adv-x="1122" 
d="M1117 -32q5 -24 -5.5 -49.5t-32.5 -36.5l-28 -14l-22 -18q-7 -2 -23 -11q3 1 -16 3q-3 0 -11 -3.5t-13 -3.5q-17 0 -84 12l-36 9q-37 3 -45 7q-17 8 -21 39q-1 10 -3 53q-2 12 -4 37q0 8 -6 56q-4 16 -7 47q-2 19 -5 231q-1 82 -10 131q-3 16 -13 30q-3 1 -6 0l-43 -20
q-30 -18 -26 -41q-2 6 -2 -22q0 -14 1 -42t1 -42q0 -44 4 -91q16 -76 20 -184q1 -28 3 -108q1 -27 -11 -87q-3 -15 -48 -27q-19 -5 -128 -5q-4 0 -25 2q-15 1 -26 0q-17 -2 -40 3q-4 1 -23 18q-4 3 -15 9q-17 109 -17 229v46q-5 35 -7 76v100q0 36 -7 91q-4 33 -6 42
q-5 25 -16 28q-9 0 -20 -10t-9 -19v-24q8 -75 14 -170q1 -33 3 -125l2 -69q-2 -22 -4 -67q3 -125 -25 -157q-33 -20 -74 -18l-77 3q-11 0 -57 1q2 2 0 3q-3 -1 -9 -1q-17 0 -35 9t-22 24q-3 12 0 93q3 11 4 27q3 51 3 109v147q0 15 1.5 24t1.5 2q0 1 2.5 25.5t2.5 48.5v98
q0 32 1 46q4 39 7 78q6 63 6 123v37q0 22 6 34q54 27 130 46q40 10 50 10q15 0 26 -6q6 -3 16 -21q0 -3 1 -8q9 -25 15 -72q2 -1 4 -1q-2 0 44 28q17 6 64 25q74 30 101 30q52 0 73 -38q8 -14 14 -45t13 -44q149 144 289 163q23 3 38 -4q48 -23 77 -97q13 -32 19 -55
q17 -60 32 -212q0 -5 16 -108l37 -246l3 -3q2 -32 18 -108zM115 -194v3h-8v-3h8z" />
    <glyph glyph-name="N" unicode="N" horiz-adv-x="721" 
d="M715 -57q1 -10 -1 -34q4 -6 4 -12q0 -33 -58 -49q-12 -3 -49 -21q-22 -10 -65 -13q-23 -2 -89 -5q-10 0 -21 2q-50 11 -57 103l-13 184q-3 24 -8 95q-2 45 -10 161q-8 109 -29 150q-17 3 -28 -14.5t-11 -35.5v-59q0 -45 10 -174q2 -20 12 -128q0 -4 3 -20q2 -35 1 -59
q-3 -75 -2 -90q0 18 -5 -30q-7 -60 -8 -66q-5 -11 -41 -19q-30 -7 -48 -7h-71q-71 7 -83 10q-42 11 -44 46q-3 62 -4 134q-2 242 5 386q4 73 10 218q1 40 4 112q2 2 6 8q0 5 1 12q25 47 90 52q4 2 18 5q78 16 82 16q44 0 65 -46q4 -13 7 -26q6 -18 15 -27q137 55 205 55
q17 0 33 -2q1 0 4 -2q15 -1 22 -5q65 -38 83 -155q25 -161 23 -235q0 -9 3 -44q1 -14 11 -104l13 -117z" />
    <glyph glyph-name="O" unicode="O" horiz-adv-x="674" 
d="M666 199q4 -90 -1 -112q-9 -38 -40 -75l-53 -61q-65 -76 -118 -117q-14 -10 -28 -19q-10 -4 -49 -12q-64 -4 -172 33q-28 9 -99.5 34t-87.5 61q-3 4 -8 13q-4 16 -4 24q0 3 1 5q0 1 -2.5 5t-2.5 7v98q0 9 2 26q1 9 0 39q0 1 -2 2q-1 3 2 12q0 1 -2 4q2 34 4 77
q-2 9 -1 27q3 10 3 9v8q-1 7 -1 10q0 2 1.5 6t1.5 6q2 22 1 31l3 3q1 14 4 34q1 2 4 54q2 5 4 17q0 3 -2 20q1 -6 2 8q2 24 0 35q3 6 3 17v8q-1 5 -1 9q0 66 8 106q0 2 1 5t1 4q0 39 18 65q37 53 118 66q15 3 61 10q14 2 54 0q1 0 5 -2t6 -2q5 0 16 2t17 2l109 -3
q62 -2 97 -18q23 -11 36 -63q2 -5 5 -14q3 -22 11 -65q1 -2 3 -7q5 -31 22 -117q6 -27 24 -102q3 -30 10 -78l1 -9q13 -87 15 -126zM362 508q-2 21 -10 69q-3 6 -24 15q-6 2 -19 14q-14 -64 -19 -147l-9 -162q-2 -12 -8 -59q-1 -7 -2 -53q-1 -32 1 -39q4 -17 26 -24
q58 -18 61 -16q10 7 32 54q7 15 7 46q0 57 -14 151z" />
    <glyph glyph-name="P" unicode="P" horiz-adv-x="615" 
d="M627 611q-1 -74 -15 -153q-1 -8 -6 -31q-2 -8 -27 -72l-8 -16q-14 -37 -74 -84q-23 -18 -138 -95q-20 -13 -28 -31q-2 -5 0 -21l13 -102q8 -64 8 -77q0 -35 -10.5 -50.5t-43.5 -29.5l-39 -15l-34 -14q-47 -18 -87 -18q-51 0 -68 35q-2 4 -1 8q-2 3 -3 2v4q-5 16 -16 46
l-3 15q0 7 -5 16q-7 41 -19 124q1 0 1 1l-15 162q0 24 -5 63q0 5 1 15v9q0 6 -1 18.5t-1 18.5q0 40 -3 62l3 4l-2 6q5 80 10 254q1 32 5 96q1 2 22 13q26 21 53 25h110q45 -6 163 -25q93 -15 161 -49q6 -2 16 -6q15 -8 43 -25q9 -7 35 -38q8 -33 8 -45zM386 498
q-2 37 -60 56q-12 3 -43 13q0 -14 -2 -56q-2 -35 -1 -56q2 -38 19 -113q14 7 24 18q66 75 63 138z" />
    <glyph glyph-name="Q" unicode="Q" horiz-adv-x="800" 
d="M793 437l-3 -3q-1 -17 -10 -82q-2 -5 -6 -18q-10 -67 -25 -96q-1 -4 -3 -11q-5 -12 -18 -34q0 -2 -1 -5q-20 -30 -66 -76q-6 -5 -20 -20q5 -19 12 -31q12 7 27 7q21 0 42 -11l6 -9q11 -16 12 -34q0 -6 -3 -37q-1 -12 -31 -34q-6 -4 -109 -80q-9 -7 -53 -28
q-15 -8 -47 -23q-18 -7 -35 -9q-1 0 -5 1.5t-6 1.5q-13 1 -30.5 16.5t-23.5 29.5q-6 3 -15 24q-4 9 -6 26q-3 25 1 35q3 7 57 47q-12 25 -19 32q-12 12 -35 12h-88q-19 -2 -54 -6h-35q-23 0 -50 19q-7 5 -49 41q-21 18 -62 72l-28 54q-14 31 -14 59q0 18 6 40q2 8 6 26
l78 171l30 54q16 37 73 134l42 61l19 22q5 1 14 0q39 24 82 26q14 1 55 -4q20 -2 77 -9q20 -3 88 -28q107 -40 141 -77q5 -1 6 -2q34 -24 59 -58q2 -4 7 -11q0 -1 -3 -4q3 0 6 -1q19 -32 19 -75q0 -16 -12 -95zM510 537q-5 5 -22 16q-47 30 -90 32q-5 0 -16 -13
q-18 -22 -23 -30q-8 -13 -39 -77l-18 -37q-3 -11 -9 -31q-7 -7 -15 -48q-4 -21 -4 -40q0 -54 70 -75l49 -15q11 0 26 9l83 50q12 60 21 119q7 46 7 64q0 22 -4 36.5t-16 39.5z" />
    <glyph glyph-name="R" unicode="R" horiz-adv-x="602" 
d="M622 460q-1 -16 -10 -24q-28 -26 -74 -38q-49 -12 -55.5 -17t-20.5 -9q-3 -1 -31 -1q-5 0 -18 1t-20 1q-34 -2 -42 30q-4 12 -9 38q0 -9 -2 25l-2 30q-2 20 -9 29q-17 -6 -32 -24.5t-12 -35.5l40 -203l26 -123q11 -55 12 -93l4 -80q3 -39 2 -65q-1 -22 -7 -39
q-1 -3 -16 -13q-26 -17 -95 -34q-65 -16 -100 -16q-64 0 -81 53q-6 18 -10 73q-1 10 -3 41q-5 94 -10 143q-7 67 -13 199t-12.5 197t-11.5 124q-2 9 -4 25q-3 4 -6 13q0 2 2 6t2 7q-1 8 0 24q10 27 49 49q12 7 97 26l54 14q33 8 56 7q1 0 3 -2q25 7 33 -35q6 -32 8 -37
q78 65 173 65q59 0 80 -29q13 -18 25 -86q2 -11 11 -47q1 -1 13 -53q19 -79 16 -116z" />
    <glyph glyph-name="S" unicode="S" horiz-adv-x="636" 
d="M634 50q0 -45 -1 -58q-1 -2 -2 -8q-1 -25 -4 -39q1 -6 0 -13q-12 -77 -47 -97q-13 -7 -43 -19q-2 -1 -20 -3q-8 -2 -23 -5q-74 -6 -82 -6h-75q-14 0 -30 1l-32 2h-147q-52 0 -77 17q-14 10 -18 49q1 3 1 9q0 5 -1 34q0 1 -2 5.5t-1 7.5q2 9 2 15q0 9 -4 12q1 1 3 4
q-2 34 -1 78q0 15 4 76q3 7 7 20q2 2 5 3q14 16 61 25l65 11q28 4 38 0t19 -29l21 -61q8 -24 16 -41q39 0 72 23q13 5 16 7q9 5 13 12q7 13 -17 70q-4 9 -23 29q-77 11 -166 25q-1 0 -46 11q-16 4 -36 8q-30 10 -41 35q-7 16 -10 55q-1 16 -7 62q-13 103 -12 136
q0 4 -2.5 11t-2.5 11q-1 10 -2 33q0 1 2 96q1 2 2 5q6 64 130 103q23 7 45 11q97 17 113 17h109q3 0 11 -2q36 -8 53 -16l11 -7q5 -3 20 -18q16 -27 33 -89l31 -115q7 -26 -1 -39q-18 -28 -88 -54q-64 -24 -103 -23q-13 0 -27 31l-18 45q-14 32 -25 49q-3 2 -8 2
q-12 0 -39 -12q0 -6 -1.5 -18t-1.5 -18q0 -10 4 -69q2 -30 7 -54q1 -1 5 -4h13q10 -1 18 -1h33q-5 0 1 1h18h19q10 0 75 -6q5 -4 16 -10q18 -4 69 -17q8 -2 51 -17q26 -12 42 -84q-1 -2 -1 -5q14 -84 14 -143v-57z" />
    <glyph glyph-name="T" unicode="T" horiz-adv-x="620" 
d="M621 0q-1 -16 -6 -59q-9 -34 -28 -86q-26 -52 -148 -52h-73q-65 0 -153 16q-18 3 -45 12q-1 1 -4 3q-47 16 -48 100l-1 8v16v26v0q1 5 1 16v17q-2 33 -1 36q2 4 5 11q0 41 2 77l4 76q0 30 1 78q1 41 -7 67q-2 7 -10 8q-35 3 -71 9q-15 2 -19 4q-19 8 -20 36q-1 41 16 136
q11 28 41 33q51 8 77 3h4v58q0 43 5 96q2 8 26 22q54 31 95 34q15 1 46 -5q13 -3 39 -17q13 -13 15 -37q0 -55 9 -128h11q8 1 9 1h57q27 -4 55 -7q72 -15 72 -118q0 -6 3 -28q2 -15 -6 -27q-4 -7 -50 -21l-107 -34q-9 -3 -18 -14.5t-10 -21.5q-2 -21 -7 -80l-13 -131
q0 -17 2 -32q2 -3 23 -4q7 0 26 -1l3 3q4 50 27 117q9 25 41 42q29 15 58 15q25 0 36 -11q8 -9 15 -34q9 -32 12 -119q1 -14 3 -49q0 -10 1 -38q0 -3 2.5 -10.5t2.5 -11.5z" />
    <glyph glyph-name="U" unicode="U" horiz-adv-x="804" 
d="M796 536q0 -1 -2 -3q-1 -144 -9 -264q-3 -40 -8 -179q-1 -2 -3 -5q-1 -33 -4 -106q0 -12 -10 -62q-3 -15 -5 -30q-4 -20 -12 -27q-3 -1 -8 -3q-61 -38 -137 -42q-30 -2 -48 31q-5 8 -22 59q-7 20 -17 45q-22 -16 -52 -46q-45 -45 -56 -54q-30 -24 -69 -36q-11 -3 -39 -10
q-26 -2 -35 -2q-117 3 -188 95l-28 36q-10 13 -27 66q-8 26 -10 38q-5 36 -5 49v8q1 6 1 8t-1.5 5.5t-1.5 5.5q-1 12 1 32q2 24 2 32v83q0 8 -1 41v12v133q0 13 1 24v68q3 13 3 35v15q-1 11 -1 16q0 19 22 53q5 12 17 26q18 10 34 14q5 -1 14 -1q5 2 16 6l119 24q-8 0 28 4
q18 2 28 2q70 0 74 -72q3 -65 -2 -124q-2 -15 -7 -59q-16 -181 -16 -245v-63q0 -19 15 -32.5t34 -13.5q27 0 38 32q1 2 11 55q15 80 23 236q4 73 7 145q0 4 1 11q1 120 55 156q68 46 137 42q7 -5 21 -10q20 1 72 -9q22 -7 27 -20q0 -2 1 -7q9 -21 19 -102q4 -31 1 -50v-56
q3 -4 2 -10z" />
    <glyph glyph-name="V" unicode="V" horiz-adv-x="784" 
d="M799 698q-11 -108 -45 -192q-25 -61 -53 -159q-6 -23 -25 -88q-14 -50 -54 -147l-42 -101q-10 -30 -39 -103q-6 -14 -19 -26l-6 -3q-26 -28 -134 -66q-17 -6 -35 -11q-4 0 -21 8t-22 12q-29 50 -54 128q-7 23 -30 87q-23 61 -52 106q-8 10 -14 24l-76 172l-19 49l-33 76
q-4 9 -17 55q-2 12 -8 37q6 40 43 94q7 4 17 15q48 77 97 89q13 3 25 -1q35 -12 51 -51q5 -21 16 -62q5 -18 75 -221l63 -177q14 16 22 39l104 308l28 94q6 20 29 73q4 13 20 35q9 7 30 10q13 2 54 -7q31 -4 91 -20q39 -16 33 -76z" />
    <glyph glyph-name="W" unicode="W" horiz-adv-x="1340" 
d="M1345 533q-1 -38 -11 -62q0 -6 -2 -15q-5 -22 -33 -114q-4 -9 -11 -28q-4 -26 -17 -94q-12 -38 -28 -104q-6 -25 -22 -97q-1 -8 -3 -22q-12 -42 -35 -65q-13 -13 -62 -43q-22 -13 -63 -33q-16 -14 -52 -23q-8 -1 -43 0q-44 33 -83 78l-73 88q0 2 -1 5l-60 84
q-42 55 -67 73l-19 -56q-1 -2 -22 -69q0 -5 -1 -13q-18 -52 -24 -67q-16 -40 -33 -68q-5 -5 -13 -15q-21 -35 -47 -46q-1 -2 -3 -5q-40 -21 -59 -21q-31 0 -78 42q-19 17 -44 56q-17 27 -137 233q-21 37 -117 229l-23 44l-27 57q-15 31 -20 51l-12 51q0 5 1 40l6 9q4 6 8 18
q16 9 68 57q69 64 122 64q59 0 85 -60l4 -4l20 -42l9 -18q5 -15 13 -45q2 -2 4 -6q8 -35 28 -89q29 -78 32 -88l3 -18q21 -67 36 -104l17 -32q18 21 23 54q2 14 8 51q10 44 31 146q-1 1 -4 1q0 -3 4 3q9 47 27 134l6 15q5 28 18 81l11 23q0 5 3 16q6 15 19 20q29 11 54 9
q10 3 21 3q35 0 57 -19q9 -8 35 -56q23 -37 48 -89q3 -6 14 -37q7 -12 19 -38q19 -56 45 -122q2 -5 46 -91q7 4 22 68l33 141l37 160q5 23 13 50q6 21 26 23q3 0 11.5 -3t13.5 -3q40 -4 85 -34q5 -3 74 -57q16 -13 28 -34q30 -20 57 -62q5 -23 4 -66z" />
    <glyph glyph-name="X" unicode="X" horiz-adv-x="855" 
d="M863 84q-12 -31 -34 -59q-77 -96 -134 -123q-21 -10 -30 -10q-27 0 -72 63q-7 10 -49 82q-31 52 -57 76q-26 -17 -43 -44q-34 -52 -86 -123q-36 -50 -93 -95q-2 -1 -39 -32q-27 -17 -65 -17q-68 0 -89 41q-5 10 -5 37q0 21 15 72q13 46 25 70l68 146q20 44 19 62
q-15 30 -55 75q-64 72 -109 131q-32 42 -28 76q0 8 2 23q5 11 32 45q1 5 3 13q71 109 142 104q51 -3 102 -64q45 -54 99 -109q32 24 64 72l52 82q1 3 3 8q31 45 52 67q40 43 72 46q17 2 39 2q58 1 125 -10q21 -3 26 -12q9 -14 1 -60q-10 -60 -42 -122l-55 -101
q-38 -74 -38 -100q0 -13 19 -40q71 -103 107 -162l52 -93q1 -6 4 -17z" />
    <glyph glyph-name="Y" unicode="Y" horiz-adv-x="674" 
d="M361 580zM361 555zM665 43q0 -66 -62 -119q-6 -5 -54 -27q-85 -39 -181 -70q-46 -15 -74 -20q-33 -1 -90 -5q-28 -2 -56 15q-10 6 -27.5 27t-22.5 32.5t-8 16.5q-3 2 -8 6q-6 8 -9 37q-5 49 -5 73q0 47 4 101q2 8 6 22q0 16 13 50q8 11 32 24q31 10 66 10q3 0 9 -1.5
t9 -1.5l65 -5q15 -1 18 -2q11 -3 13 -9q5 -32 20 -83q3 -10 23 -30q2 -1 5 -1q13 0 44 31q8 16 6 42q-2 29 -3 24q0 3 1 6q-2 23 -16 67q-9 16 -16 18q-15 4 -35 4q-25 0 -66 -7q-51 -9 -66 -10q-48 -4 -70 -3q-123 5 -120 112q0 1 -1 1q-8 32 -8 87q0 24 2 64l2 40v73
q0 9 2 10q-1 5 -1 9t1 7q0 1 -2 2q0 2 2 5q1 6 0 18q-2 7 -2 8q3 3 10 9q4 1 12 4q6 7 17 16q31 15 74 20h37q4 0 14 -1q48 -5 62 -58q8 -29 10 -95q3 -78 6 -101q9 -18 46 -25q20 -4 30 -4q14 0 19 7l7 18q7 13 10 78q2 0 3 1q-1 1 -3 32q1 -1 4 -9v0q1 6 -1 16
q-1 -1 -1.5 -3t-1.5 -3q0 7 2 14q0 -3 2 -4q1 2 1 9q0 14 -5 77q0 -8 2 28q1 21 15.5 44t33.5 29q23 8 54 10q74 6 104 -14q2 -1 8 -16q13 -32 19 -64q11 -54 37 -215q1 -6 5 -23q0 -21 5 -60q6 -49 7 -62l8 -109q1 -12 5 -53q3 -33 3 -53v-88z" />
    <glyph glyph-name="Z" unicode="Z" horiz-adv-x="749" 
d="M748 482q0 -24 -11 -60q-12 -41 -27 -53q-19 -16 -63 -43q-114 -45 -199 -82q-46 -20 -93 -60q-55 -47 -56 -87q0 -3 8 -8q4 -2 20 -6l43 -14q24 -8 46 -8q40 0 51 32q5 10 11 30q0 12 9 49q2 8 10 37q9 24 33 35q11 5 47 13h70l31 -9q47 -22 47 -83q0 -24 -8 -62
q-14 -67 -87 -201q-5 -12 -19 -35q-20 -45 -90 -59q-32 -6 -57 -6q-71 1 -144 20q-41 12 -149 40l-73 17q-41 10 -68 29q-19 13 -28 63q1 10 -1 27q0 -3 1 29q1 41 10 81q1 3 11 27q2 8 7 25q8 14 20 41q9 36 37 66t62 39q5 1 42 26q16 10 91 41q38 15 80 30q1 0 44 12
q25 7 44 19q4 5 17 17q34 32 29 79v13q-6 24 -27.5 45t-45.5 26q-14 3 -46 -9q-44 -16 -61 -61q-6 -16 -16 -75q0 -16 -8 -45q-15 -23 -128 -25q-82 -1 -104 46q-12 26 -20 26q0 20 3 60.5t2 58.5q-1 12 4 24q2 5 -2 5q0 3 5 8q0 4 -3 5q1 -3 4 10q-1 5 -1 13q11 27 12 51
q1 19 27 56q39 39 240 38q44 0 155 -7q183 -11 224 -65q16 -21 22 -53q1 -2 4 -5q2 -6 3 -36l2 -2q7 -49 7 -42v-108zM51 582v8h-4v-8h4zM43 472v11h-3v-11h3z" />
    <glyph glyph-name="a" unicode="a" horiz-adv-x="640" 
d="M630 34q0 -4 -2 -24q-2 -4 -4 -6q-4 -18 -13 -54t-24 -54t-49 -30q-5 -3 -18 -9q-69 -20 -119 -27q-20 -2 -78 -10q-73 -11 -129 -17q-73 -1 -104 5q-64 13 -71 60q-5 19 -12 58q-1 6 -3 25q0 2 1 4.5t1 4.5q-1 21 -1 52q0 15 7 70q3 22 9 62q5 14 14 44q0 6 1 18
q16 44 26 57q59 77 247 86q15 -1 40 6q7 5 7 26v110q0 33 -15 98q-1 4 -5 10q-16 6 -38 -3q-32 -13 -46 -33q-3 -4 -7 -61q-2 -32 -5 -47q-5 -28 -19 -38t-45 -12q-12 -1 -43 -3q-14 -2 -53 -7q-12 1 -36 -1q-2 4 -10 10q-10 2 -27 14q-6 10 -6 54v40q0 98 20 152q3 4 7 11
q10 29 77 59q80 36 110 40q14 3 57 11q126 22 211 14q52 -5 68 -25q12 -15 25 -70q4 -36 13 -99q8 -56 16 -119q2 -4 4 -11q4 -29 13 -113l4 -92q-1 -11 -1 -18q5 -119 5 -162v-56zM406 102q1 12 -3 75q1 10 -4 24q-16 11 -47 15q-6 1 -21 -4q-10 -2 -23 -11q-3 -13 -9 -34
q-9 -107 -8 -126q0 -7 3 -10h24q7 0 15 1h8q17 0 49 5q11 0 16 65z" />
    <glyph glyph-name="b" unicode="b" horiz-adv-x="554" 
d="M564 331q-1 -19 -12 -145q-1 -24 -8 -93q-4 -35 -17 -134l-3 -3q-5 -46 -27 -87q-3 -6 -14 -13q-37 -23 -100 -36q-91 -18 -143 -18h-68q4 0 -18 2q-98 9 -139 37q-12 8 -15 36q-2 22 0 60q5 88 9 174q0 5 1.5 15t1.5 16q0 35 2 116l3 122q1 31 0 35q3 20 8 67
q9 91 9 134v88q2 1 2 5v5q0 3 -2 4q3 5 2 29q-1 21 4 27q9 11 31 7q7 -1 10 -2q64 21 120 21q44 0 48 -1q26 -1 47 -12q7 -4 20 -40q3 -8 8 -34q2 -6 5 -16l12 -94v-60q0 -32 24 -31q15 1 31 3l22 3h57q8 -2 29 -6q41 -8 48 -54q2 -3 4 -9q11 -47 8 -118zM336 117
q-5 0 -4 -1q-1 6 2 7q1 4 -1 8q1 18 0 35t-5 39q-1 1 -3 2q1 2 1 6l-8 44q-7 30 -14 39v7q-18 3 -26 -22q-6 -19 -4 -39q4 -41 5 -66q-1 -15 0 -34q0 -5 6 -55q4 -3 11 -3q18 0 40 16v17z" />
    <glyph glyph-name="c" unicode="c" horiz-adv-x="585" 
d="M579 153q2 -49 0 -143q-1 -4 -6.5 -47.5t-14.5 -67.5q-17 -43 -58 -62q-55 -26 -191 -29q-77 -2 -150 4q-29 2 -38 4q-76 14 -83 79q-3 7 -7 22q-8 47 -8 63v92q-2 30 -3 56q-1 12 -6 83q-5 65 -5 118v84q0 16 -3 47t-3 47.5t-2 51.5t-2 52q0 44 10 74q15 46 157 89
q37 11 90 21l101 9q22 2 33 2q99 0 116 -80q2 -14 9 -51q20 -113 20 -127q0 -57 -54 -78q-44 -17 -92 -23q-25 -3 -37 0l-11 8q-1 6 -10 36q-3 27 -17 81q-30 3 -53 -13q-1 -2 -3 -27q0 -2 -2 -4q-3 -48 -3 -81q0 -27 2 -43v-124q4 -18 4 -51v-51q0 -19 3 -33q5 -22 18 -24
q30 -4 43 0q3 1 7 54q7 73 11 105q16 54 96 67q67 11 87 6q12 -3 12 -11q10 -4 24 -19q8 -24 14 -75q2 -17 5 -91z" />
    <glyph glyph-name="d" unicode="d" horiz-adv-x="650" 
d="M648 28q-3 -45 -27 -100q-19 -30 -56 -46q-21 -9 -72 -20l-97 -21q-25 -6 -218 -32q-6 0 -18.5 -3.5t-19.5 -3.5q-52 0 -64 2q-43 7 -59 35q-19 57 -13 128q2 19 5 84q1 11 5 51q0 1 -2 4q2 24 7 65q0 2 -1 5q5 26 21 143q5 38 19 79q18 55 54 71q52 23 131 23
q26 0 89 -4q2 5 -3 31l-12 41q-3 22 -11 65q-17 60 -15 86q0 7 5 33q0 31 8 37q29 22 106 22q68 0 121 -27q19 -10 26 -37q3 -23 7 -47l-1 -2q5 -15 19 -109l3 -3q20 -104 41 -240q8 -53 20 -207q5 -63 2 -103zM421 126q0 31 -32 152q-2 4 -10 9t-12 4q-41 -8 -50 -24
q-22 -40 -24 -105q-2 -88 1 -104q2 -10 50 -8q33 1 64 8q13 24 13 68z" />
    <glyph glyph-name="e" unicode="e" horiz-adv-x="610" 
d="M596 -51q-1 -16 -17 -74q-2 -17 -16 -45q-25 -26 -97 -28q-33 -1 -135 6q-32 3 -125 10q-71 5 -120 28q-71 32 -79 93l-4 29q0 51 -2 71q5 5 10 16q8 82 9 126q1 51 6 114q4 42 30 202l7 44l4 31q9 55 21 98q11 28 10 31q2 -1 4 2q-3 39 51 69q68 23 178 28q21 1 45 0
q14 -2 78 -14l2 -2q27 -7 57 -26q34 -22 43 -43q2 -2 6 -5q8 -24 9 -29q9 -42 18 -145q3 -36 2 -66q-1 -67 -9 -201q-2 -19 -12 -23q-16 -6 -54 -10q-45 -5 -57 -7q-32 -6 -115 -23q-37 -8 -82 -22v-51q0 -1 2 -36q0 -7 3 -14q10 -16 54 -21q1 1 4 3q1 6 12 86q1 4 5 11v3
q2 2 5 6q66 35 198 44q12 1 21 -15q4 -3 10 -8q8 -10 10 -24q1 -5 8 -153q3 -57 2 -66zM362 378l-9 96q-8 70 -24 86q-8 2 -15 0q-15 -5 -19 -10q-35 -52 -36 -199q3 3 6 5q33 6 97 22z" />
    <glyph glyph-name="f" unicode="f" horiz-adv-x="569" 
d="M578 515q0 -3 -1 -33q-5 -5 -16 -13q-12 -2 -33 -7q-58 -27 -109 -27q-37 0 -44 9q-5 6 -24 97q0 7 -7 19q-33 -6 -33 -52q0 -14 5 -42.5t5 -42.5q0 -7 2 -21t2 -21q1 -1 5 0q42 10 77 12q39 3 49 -19q7 -26 17 -80q3 -31 5 -40q5 -22 -6 -31q-20 -16 -116 -39
q-2 -1 -6 -4q5 -50 7 -81q1 -1 2 -3q11 -86 16 -155q4 -57 0 -82q-2 -12 -29 -24q-37 -11 -94 -16q-7 -1 -58 -10q-33 -6 -57 -6q-18 0 -31 4q0 4 -7 8q0 3 2 8q-4 9 -8 28q-1 19 3 74q9 123 1 254q-5 2 -60 8q-36 4 -36 25q0 5 1 10q-1 -4 -1 19q0 5 1 14t1 14l-1 8
q0 25 8 61q2 11 13 30q3 3 16 5q7 2 26 4q11 1 29 -1q1 20 -6 74q-3 23 -3 92q0 11 1.5 31.5t1.5 31.5q1 0 3 2q3 41 17 66q3 5 18 19q46 43 134 70q39 12 149 34q40 8 59 5q23 -4 41 -23.5t23 -42.5q2 -2 4 -6l22 -121q3 -17 12 -57z" />
    <glyph glyph-name="g" unicode="g" horiz-adv-x="597" 
d="M587 -6q0 -43 -1 -69q-3 -78 -65 -93q-8 -4 -23 -10l-25 -3q-23 -9 -77 -17q-42 -6 -184 11q-14 2 -52 6q-45 4 -54 6q-55 13 -65 63q-6 6 -6 35q0 34 4 65q1 4 -1 6q1 18 2 52q-1 14 5 65q2 17 9 41q10 17 63 27q20 4 82 -1q26 -2 34 -4q16 -6 21 -23l9 -59q1 -1 2 -3
q3 -26 17 -76q23 2 29 4q22 10 18 87q-1 9 -5 18v8q-1 1 -3 6l-10 41q-10 24 -33 29q-6 0 -52 2q-21 1 -61.5 -5.5t-59.5 -6.5q-60 0 -81 66q-5 16 -14 75v11q-8 68 -8 140v125q1 69 17 120q3 5 10 14q2 5 8 14q28 23 70 31q5 1 75 8h49q13 3 66 -2q22 -2 37 -7h24
q49 0 65 -2q33 -6 57 -27q27 -25 38 -52q7 -17 21 -72q3 -27 12.5 -103t25.5 -230q1 -10 7 -147q-1 -1 -1 -9l2 -6q2 -68 2 -149zM266 577q0 5 -7 15q-10 2 -16 0q-11 -4 -12 -5q-24 0 -21 1q0 -2 -4 -37q-2 -17 -2 -37q0 -24 6 -65q8 -54 8 -60q8 -2 21 -1q11 1 20 2
q14 103 7 187z" />
    <glyph glyph-name="h" unicode="h" horiz-adv-x="661" 
d="M648 -68q0 -5 2 -19t1 -22q-1 -13 -8 -20q-10 -12 -25 -19q-48 -14 -81 -25q-18 -18 -47 -18h-49q-56 0 -78 21q-13 83 -45 249q1 4 0 12q-2 7 -11 19q-7 5 -23 3q-15 -2 -15 -25q0 -8 1 -19q1 -4 3 -10q1 -15 11 -90l-2 -3q12 -93 6 -126q-4 -23 -30 -33q-16 -6 -28 -6
h-80q-30 0 -65 7q-50 10 -54 26q1 13 -3 37q0 1 2 4q-2 15 -2 53v108q0 29 2 52q-3 30 -8 100q0 -3 3 25l-3 3q0 -8 -2 143q0 20 -2 48l-2 32v126q0 1 -2 4q-2 27 -6 61q0 8 -3 23q1 2 2 5q0 6 -5 41q-5 41 33 56q29 8 88 21q16 2 53 4q31 2 52 -9q15 -26 22 -51q0 -5 2 -19
q8 -69 22 -202q1 -24 5 -87l3 -12q1 0 3 -2q13 -4 25 -3q1 4 4 10v52q-1 9 -3 34q-1 6 2 7q0 1 -1 1q-2 7 1 9q-3 7 -6 35q0 9 -1 23q2 18 -3 30h2v8q-1 8 -1 15v26q0 6 -1 18t-1 18q1 11 7 82q14 33 58 36q13 1 75 2q13 2 55 0q11 1 39 -6q5 -2 8 -10q9 -17 22 -59l6 -41
q4 -25 19 -108q4 -41 10 -119q1 -13 6 -73q1 -4 3 -13l31 -316q5 -47 6 -92z" />
    <glyph glyph-name="i" unicode="i" horiz-adv-x="387" 
d="M288 738q4 -12 -1 -48.5t-11 -49.5q0 -4 -1 -11q-5 -19 -19 -57q0 -29 -32 -62q-4 -4 -22 -8q-11 -5 -49 5q-11 3 -53 23q-10 6 -40 19q-8 3 -25 15q-23 16 -29 25q-8 13 -5 37q1 3 5 17q0 11 37 113q3 10 12 33q4 5 21 6.5t20 5.5q18 0 33 -2q65 -9 122 -31
q31 -12 37 -30zM385 -73q0 -4 -8 -13q-21 -24 -36 -34q-10 -4 -26 -13q-47 -27 -89 -41q-16 -8 -74 -24h-26q-22 0 -27 8q-18 29 -25 105q-2 23 -11 158q-1 2 -3 5q1 7 -4 47q-2 15 -3 31q-5 85 -5 120v60q0 62 -2 81q-2 2 -8 10q-1 3 5 16q6 4 37 11q82 19 108 19h47
q32 -1 45 -25q6 -11 15 -54q3 -6 7 -18q4 -21 13 -63q7 -18 10 -32q29 -126 49 -293q1 -8 6 -31q5 -19 5 -30z" />
    <glyph glyph-name="j" unicode="j" horiz-adv-x="613" 
d="M605 164q5 -78 -20 -259q-6 -12 -13 -29q-23 -57 -87 -63l-48 -7q-27 -4 -49 -4q-47 0 -83 2l-54 3h-73q-4 0 -11 1.5t-11 1.5q-125 1 -152 60q-2 4 -1 55l1 -2q2 2 2 8q0 5 -4 6q-1 2 2 6q-2 8 -2 20q0 17 4 43q1 2 -2 5q3 4 3 10q0 3 -1 8l4 60q3 38 4 80l2 2
q5 18 3 32q1 3 1 13q5 20 23 36.5t38 19.5q62 9 80 9q39 0 59 -13q5 -3 18 -75q12 -65 25 -126q6 -4 11 -2q6 1 15 6q27 27 27 72q0 13 -2.5 39t-2.5 39q0 3 -4 18q-1 6 -1 10q-2 32 -12 111q-3 23 -4 19q1 8 1 9q-1 5 -7 56l-17 152q-2 4 -4 12q-4 64 -10 116l-5 42
q0 14 37 28q18 7 54 6q87 -2 121 -7q64 -9 99 -38q1 -1 6 -16q3 -8 7 -32q21 -121 24 -237q0 -10 2 -42q1 -26 1 -42v-68q0 -3 1.5 -9.5t1.5 -9.5v-65q0 -22 3 -70z" />
    <glyph glyph-name="k" unicode="k" horiz-adv-x="764" 
d="M774 588q3 -25 -1 -35l-35 -69l-74 -145l-28 -58l-39 -75q-6 -12 -4 -24q1 -6 4 -11l37 -38q5 -5 65 -88q25 -35 25 -55q0 -6 -2 -10q-18 -32 -104 -124q-40 -42 -86 -42q-19 0 -45 25q-29 27 -41 42l-123 154q-9 14 -26 32q-5 -27 -5 -91v-85q0 -89 -90 -89
q-9 0 -26.5 1t-25.5 1t-22 2t-21 2q-88 2 -105 58q-3 10 -2 36q1 23 4 61q1 8 3 32l8 184q0 8 9 113q-1 12 -1 22q0 21 3 79q5 67 21 299q0 12 2 48q3 6 5 37q1 2 6 9l6 3q11 -1 29 1q4 4 14 9q13 3 155 -10q13 -1 61 -14q23 -6 37 -22q2 -4 2 -6q4 -13 12 -172
q3 -63 -12 -154q-2 -13 0 -27q24 22 64 65l49 55l63 69l17 19q5 1 8 5q22 28 47 55q19 21 48 34q3 2 20 0q16 -2 21 -5q24 -13 37 -41q11 -6 22.5 -27t13.5 -35z" />
    <glyph glyph-name="l" unicode="l" horiz-adv-x="660" 
d="M681 101q1 -23 1 -38q0 -78 -21 -153q-7 -24 -81 -43l-93 -20q-21 -5 -93 -21q-77 -7 -157 -20l-86 -3q-60 -2 -82 4q-42 11 -53 54q-5 10 -10 29q-4 54 -4 127q0 147 3 391q3 14 5 35q3 75 13 226q2 21 9 81q2 13 20 22q3 2 16 -1q15 26 54 27q32 0 95 3q17 2 20 2
q56 0 73 -22q13 -16 32 -159l11 -81q0 -3 17 -98q2 -12 7 -44.5t15 -107.5q1 -23 7 -88q1 -6 8 -6h8l-8 -1q4 -2 16 -2q16 0 44 1q24 1 75 0q10 0 30 2t30 2q3 0 9.5 1.5t9.5 1.5q24 0 44 -17q12 -10 13 -16z" />
    <glyph glyph-name="m" unicode="m" horiz-adv-x="1122" 
d="M1117 -32q5 -24 -5.5 -49.5t-32.5 -36.5l-28 -14l-22 -18q-7 -2 -23 -11q3 1 -16 3q-3 0 -11 -3.5t-13 -3.5q-17 0 -84 12l-36 9q-37 3 -45 7q-17 8 -21 39q-1 10 -3 53q-2 12 -4 37q0 8 -6 56q-4 16 -7 47q-2 19 -5 231q-1 82 -10 131q-3 16 -13 30q-3 1 -6 0l-43 -20
q-30 -18 -26 -41q-2 6 -2 -22q0 -14 1 -42t1 -42q0 -44 4 -91q16 -76 20 -184q1 -28 3 -108q1 -27 -11 -87q-3 -15 -48 -27q-19 -5 -128 -5q-4 0 -25 2q-15 1 -26 0q-17 -2 -40 3q-4 1 -23 18q-4 3 -15 9q-17 109 -17 229v46q-5 35 -7 76v100q0 36 -7 91q-4 33 -6 42
q-5 25 -16 28q-9 0 -20 -10t-9 -19v-24q8 -75 14 -170q1 -33 3 -125l2 -69q-2 -22 -4 -67q3 -125 -25 -157q-33 -20 -74 -18l-77 3q-11 0 -57 1q2 2 0 3q-3 -1 -9 -1q-17 0 -35 9t-22 24q-3 12 0 93q3 11 4 27q3 51 3 109v147q0 15 1.5 24t1.5 2q0 1 2.5 25.5t2.5 48.5v98
q0 32 1 46q4 39 7 78q6 63 6 123v37q0 22 6 34q54 27 130 46q40 10 50 10q15 0 26 -6q6 -3 16 -21q0 -3 1 -8q9 -25 15 -72q2 -1 4 -1q-2 0 44 28q17 6 64 25q74 30 101 30q52 0 73 -38q8 -14 14 -45t13 -44q149 144 289 163q23 3 38 -4q48 -23 77 -97q13 -32 19 -55
q17 -60 32 -212q0 -5 16 -108l37 -246l3 -3q2 -32 18 -108zM115 -194v3h-8v-3h8z" />
    <glyph glyph-name="n" unicode="n" horiz-adv-x="721" 
d="M715 -57q1 -10 -1 -34q4 -6 4 -12q0 -33 -58 -49q-12 -3 -49 -21q-22 -10 -65 -13q-23 -2 -89 -5q-10 0 -21 2q-50 11 -57 103l-13 184q-3 24 -8 95q-2 45 -10 161q-8 109 -29 150q-17 3 -28 -14.5t-11 -35.5v-59q0 -45 10 -174q2 -20 12 -128q0 -4 3 -20q2 -35 1 -59
q-3 -75 -2 -90q0 18 -5 -30q-7 -60 -8 -66q-5 -11 -41 -19q-30 -7 -48 -7h-71q-71 7 -83 10q-42 11 -44 46q-3 62 -4 134q-2 242 5 386q4 73 10 218q1 40 4 112q2 2 6 8q0 5 1 12q25 47 90 52q4 2 18 5q78 16 82 16q44 0 65 -46q4 -13 7 -26q6 -18 15 -27q137 55 205 55
q17 0 33 -2q1 0 4 -2q15 -1 22 -5q65 -38 83 -155q25 -161 23 -235q0 -9 3 -44q1 -14 11 -104l13 -117z" />
    <glyph glyph-name="o" unicode="o" horiz-adv-x="674" 
d="M666 199q4 -90 -1 -112q-9 -38 -40 -75l-53 -61q-65 -76 -118 -117q-14 -10 -28 -19q-10 -4 -49 -12q-64 -4 -172 33q-28 9 -99.5 34t-87.5 61q-3 4 -8 13q-4 16 -4 24q0 3 1 5q0 1 -2.5 5t-2.5 7v98q0 9 2 26q1 9 0 39q0 1 -2 2q-1 3 2 12q0 1 -2 4q2 34 4 77
q-2 9 -1 27q3 10 3 9v8q-1 7 -1 10q0 2 1.5 6t1.5 6q2 22 1 31l3 3q1 14 4 34q1 2 4 54q2 5 4 17q0 3 -2 20q1 -6 2 8q2 24 0 35q3 6 3 17v8q-1 5 -1 9q0 66 8 106q0 2 1 5t1 4q0 39 18 65q37 53 118 66q15 3 61 10q14 2 54 0q1 0 5 -2t6 -2q5 0 16 2t17 2l109 -3
q62 -2 97 -18q23 -11 36 -63q2 -5 5 -14q3 -22 11 -65q1 -2 3 -7q5 -31 22 -117q6 -27 24 -102q3 -30 10 -78l1 -9q13 -87 15 -126zM362 508q-2 21 -10 69q-3 6 -24 15q-6 2 -19 14q-14 -64 -19 -147l-9 -162q-2 -12 -8 -59q-1 -7 -2 -53q-1 -32 1 -39q4 -17 26 -24
q58 -18 61 -16q10 7 32 54q7 15 7 46q0 57 -14 151z" />
    <glyph glyph-name="p" unicode="p" horiz-adv-x="615" 
d="M627 611q-1 -74 -15 -153q-1 -8 -6 -31q-2 -8 -27 -72l-8 -16q-14 -37 -74 -84q-23 -18 -138 -95q-20 -13 -28 -31q-2 -5 0 -21l13 -102q8 -64 8 -77q0 -35 -10.5 -50.5t-43.5 -29.5l-39 -15l-34 -14q-47 -18 -87 -18q-51 0 -68 35q-2 4 -1 8q-2 3 -3 2v4q-5 16 -16 46
l-3 15q0 7 -5 16q-7 41 -19 124q1 0 1 1l-15 162q0 24 -5 63q0 5 1 15v9q0 6 -1 18.5t-1 18.5q0 40 -3 62l3 4l-2 6q5 80 10 254q1 32 5 96q1 2 22 13q26 21 53 25h110l163 -25q94 -16 161 -49q6 -2 16 -6q15 -8 43 -25q9 -7 35 -38q8 -33 8 -45zM386 498q-2 37 -60 56
q-12 3 -43 13q0 -14 -2 -56q-2 -35 -1 -56q2 -38 19 -113q14 7 24 18q66 75 63 138z" />
    <glyph glyph-name="q" unicode="q" horiz-adv-x="800" 
d="M793 437l-3 -3q-1 -17 -10 -82q-2 -5 -6 -18q-10 -67 -25 -96q-1 -4 -3 -11q-5 -12 -18 -34q0 -2 -1 -5q-20 -30 -66 -76q-6 -5 -20 -20q5 -19 12 -31q12 7 27 7q21 0 42 -11l6 -9q11 -16 12 -34q0 -6 -3 -37q-1 -12 -31 -34q-6 -4 -109 -80q-9 -7 -53 -28
q-15 -8 -47 -23q-18 -7 -35 -9q-1 0 -5 1.5t-6 1.5q-13 1 -30.5 16.5t-23.5 29.5q-6 3 -15 24q-4 9 -6 26q-3 25 1 35q3 7 57 47q-12 25 -19 32q-12 12 -35 12h-88q-19 -2 -54 -6h-35q-23 0 -50 19q-7 5 -49 41q-21 18 -62 72l-28 54q-14 31 -14 59q0 18 6 40q2 8 6 26
l78 171l30 54q16 37 73 134l42 61l19 22q5 1 14 0q39 24 82 26q14 1 55 -4q20 -2 77 -9q20 -3 88 -28q107 -40 141 -77q5 -1 6 -2q34 -24 59 -58q2 -4 7 -11q0 -1 -3 -4q3 0 6 -1q19 -32 19 -75q0 -16 -12 -95zM510 537q-5 5 -22 16q-47 30 -90 32q-5 0 -16 -13
q-18 -22 -23 -30q-8 -13 -39 -77l-18 -37q-3 -11 -9 -31q-7 -7 -15 -48q-4 -21 -4 -40q0 -54 70 -75l49 -15q11 0 26 9l83 50q12 60 21 119q7 46 7 64q0 22 -4 36.5t-16 39.5z" />
    <glyph glyph-name="r" unicode="r" horiz-adv-x="602" 
d="M622 460q-1 -16 -10 -24q-28 -26 -74 -38q-49 -12 -55.5 -17t-20.5 -9q-3 -1 -31 -1q-5 0 -18 1t-20 1q-34 -2 -42 30q-4 12 -9 38q0 -9 -2 25l-2 30q-2 20 -9 29q-17 -6 -32 -24.5t-12 -35.5l40 -203l26 -123q11 -55 12 -93l4 -80q3 -39 2 -65q-1 -22 -7 -39
q-1 -3 -16 -13q-26 -17 -95 -34q-65 -16 -100 -16q-64 0 -81 53q-6 18 -10 73q-1 10 -3 41q-5 94 -10 143q-7 67 -13 199t-12.5 197t-11.5 124q-2 9 -4 25q-3 4 -6 13q0 2 2 6t2 7q-1 8 0 24q10 27 49 49q12 7 97 26l54 14q33 8 56 7q1 0 3 -2q25 7 33 -35q6 -32 8 -37
q78 65 173 65q59 0 80 -29q13 -18 25 -86q2 -11 11 -47q1 -1 13 -53q19 -79 16 -116z" />
    <glyph glyph-name="s" unicode="s" horiz-adv-x="636" 
d="M634 50q0 -45 -1 -58q-1 -2 -2 -8q-1 -25 -4 -39q1 -6 0 -13q-12 -78 -47 -97q-16 -9 -43 -19q-2 -1 -20 -3q-8 -2 -23 -5q-74 -6 -82 -6h-75q-14 0 -30 1l-32 2h-147q-52 0 -77 17q-14 10 -18 49q1 3 1 9q0 5 -1 34q0 1 -2 5.5t-1 7.5q2 9 2 15q0 9 -4 12q1 1 3 4
q-2 34 -1 78q0 15 4 76q3 7 7 20q2 2 5 3q14 16 61 25l65 11q28 4 38 0t19 -29l21 -61q8 -24 16 -41q39 0 72 23q13 5 16 7q9 5 13 12q7 13 -17 70q-4 9 -23 29q-77 11 -166 25q-1 0 -46 11q-16 4 -36 8q-30 10 -41 35q-7 16 -10 55q-1 16 -7 62q-13 103 -12 136
q0 4 -2.5 11t-2.5 11q-1 10 -2 33q0 1 2 96q1 2 2 5q6 64 130 103q23 7 45 11q97 17 113 17h109q3 0 11 -2q36 -8 53 -16l11 -7q5 -3 20 -18q16 -27 33 -89l31 -115q7 -26 -1 -39q-18 -28 -88 -54q-64 -24 -103 -23q-13 0 -27 31l-18 45q-14 32 -25 49q-3 2 -8 2
q-12 0 -39 -12q0 -6 -1.5 -18t-1.5 -18q0 -10 4 -69q2 -30 7 -54q1 -1 5 -4h13q10 -1 18 -1h33q-5 0 1 1h18h19q10 0 75 -6q5 -4 16 -10q18 -4 69 -17q8 -2 51 -17q26 -12 42 -84q-1 -2 -1 -5q14 -84 14 -143v-57z" />
    <glyph glyph-name="t" unicode="t" horiz-adv-x="620" 
d="M621 0q-1 -16 -6 -59q-9 -34 -28 -86q-26 -52 -148 -52h-73q-65 0 -153 16q-18 3 -45 12q-1 1 -4 3q-47 16 -48 100l-1 8v16v26v0q1 5 1 16v17q-2 33 -1 36q2 4 5 11q0 41 2 77l4 76q0 30 1 78q1 41 -7 67q-2 7 -10 8q-35 3 -71 9q-15 2 -19 4q-19 8 -20 36q-1 41 16 136
q11 28 41 33q51 8 77 3h4v58q0 43 5 96q2 8 26 22q54 31 95 34q15 1 46 -5q13 -3 39 -17q13 -13 15 -37q0 -55 9 -128h11q8 1 9 1h57q27 -4 55 -7q72 -15 72 -118q0 -6 3 -28q2 -15 -6 -27q-4 -7 -50 -21l-107 -34q-9 -3 -18 -14.5t-10 -21.5q-2 -21 -7 -80l-13 -131
q0 -17 2 -32q2 -3 23 -4q7 0 26 -1l3 3q4 50 27 117q9 25 41 42q29 15 58 15q25 0 36 -11q8 -9 15 -34q9 -32 12 -119q1 -14 3 -49q0 -10 1 -38q0 -3 2.5 -10.5t2.5 -11.5z" />
    <glyph glyph-name="u" unicode="u" horiz-adv-x="804" 
d="M796 536q0 -1 -2 -3q-1 -144 -9 -264q-3 -40 -8 -179q-1 -2 -3 -5q-1 -33 -4 -106q0 -12 -10 -62q-3 -15 -5 -30q-4 -20 -12 -27q-3 -1 -8 -3q-61 -38 -137 -42q-30 -2 -48 31q-5 8 -22 59q-7 20 -17 45q-22 -16 -52 -46q-45 -45 -56 -54q-30 -24 -69 -36q-11 -3 -39 -10
q-26 -2 -35 -2q-117 3 -188 95l-28 36q-10 13 -27 66q-8 26 -10 38q-5 36 -5 49v8q1 6 1 8t-1.5 5.5t-1.5 5.5q-1 12 1 32q2 24 2 32v83q0 8 -1 41v12v133q0 13 1 24v68q3 13 3 35v15q-1 11 -1 16q0 19 22 53q5 12 17 26q18 10 34 14q5 -1 14 -1q5 2 16 6l119 24q-8 0 28 4
q18 2 28 2q70 0 74 -72q3 -65 -2 -124q-2 -15 -7 -59q-16 -181 -16 -245v-63q0 -19 15 -32.5t34 -13.5q27 0 38 32q1 2 11 55q15 80 23 236q4 73 7 145q0 4 1 11q1 120 55 156q68 46 137 42q7 -5 21 -10q20 1 72 -9q22 -7 27 -20q0 -2 1 -7q9 -21 19 -102q4 -31 1 -50v-56
q3 -4 2 -10z" />
    <glyph glyph-name="v" unicode="v" horiz-adv-x="784" 
d="M799 698q-11 -108 -45 -192q-25 -61 -53 -159q-6 -23 -25 -88q-14 -50 -54 -147l-42 -101q-10 -30 -39 -103q-6 -14 -19 -26l-6 -3q-26 -28 -134 -66q-17 -6 -35 -11q-4 0 -21 8t-22 12q-29 50 -54 128q-7 23 -30.5 86.5t-51.5 106.5q-4 6 -14 24q-25 52 -76 172l-19 49
l-33 76q-4 9 -17 55q-2 12 -8 37q6 40 43 94q7 4 17 15q48 77 97 89q13 3 25 -1q35 -12 51 -51q5 -21 16 -62q5 -18 75 -221l63 -177q14 16 22 39l104 308l28 94q6 20 29 73q4 13 20 35q9 7 30 10q13 2 54 -7q31 -4 91 -20q39 -16 33 -76z" />
    <glyph glyph-name="w" unicode="w" horiz-adv-x="1340" 
d="M1345 533q-1 -38 -11 -62q0 -6 -2 -15q-5 -22 -33 -114q-4 -9 -11 -28q-4 -26 -17 -94q-12 -38 -28 -104q-6 -25 -22 -97q-1 -8 -3 -22q-12 -42 -35 -65q-13 -13 -62 -43q-22 -13 -63 -33q-16 -14 -52 -23q-8 -1 -43 0q-44 33 -83 78l-73 88q0 2 -1 5l-60 84
q-42 55 -67 73l-19 -56q-1 -2 -22 -69q0 -5 -1 -13q-18 -52 -24 -67q-16 -40 -33 -68q-5 -5 -13 -15q-21 -35 -47 -46q-1 -2 -3 -5q-40 -21 -59 -21q-31 0 -78 42q-19 17 -44 56q-17 27 -137 233q-21 37 -117 229l-23 44l-27 57q-15 31 -20 51l-12 51q0 5 1 40l6 9q4 6 8 18
q16 9 68 57q69 64 122 64q59 0 85 -60l4 -4l20 -42l9 -18q5 -15 13 -45q2 -2 4 -6q8 -35 28 -89q29 -78 32 -88l3 -18q21 -67 36 -104l17 -32q18 21 23 54q2 14 8 51q10 44 31 146q-1 1 -4 1q0 -3 4 3q9 47 27 134l6 15q5 28 18 81l11 23q0 5 3 16q6 15 19 20q29 11 54 9
q10 3 21 3q35 0 57 -19q9 -8 35 -56q23 -37 48 -89q3 -6 14 -37q7 -12 19 -38q19 -56 45 -122q2 -5 46 -91q7 4 22 68l33 141l37 160q5 23 13 50q6 21 26 23q3 0 11.5 -3t13.5 -3q40 -4 85 -34q5 -3 74 -57q16 -13 28 -34q30 -20 57 -62q5 -23 4 -66z" />
    <glyph glyph-name="x" unicode="x" horiz-adv-x="848" 
d="M863 84q-12 -31 -34 -59q-77 -96 -134 -123q-21 -10 -30 -10q-27 0 -72 63q-7 10 -49 82q-31 52 -57 76q-26 -17 -43 -44q-34 -52 -86 -123q-36 -50 -93 -95q-2 -1 -39 -32q-27 -17 -65 -17q-68 0 -89 41q-5 10 -5 37q0 21 15 72q13 46 25 70l68 146q20 44 19 62
q-15 30 -55 75q-64 72 -109 131q-32 42 -28 76q0 8 2 23q5 11 32 45q1 5 3 13q71 109 142 104q51 -3 102 -64q45 -54 99 -109q32 24 64 72l52 82q1 3 3 8q31 45 52 67q40 43 72 46q17 2 39 2q58 1 125 -10q21 -3 26 -12q9 -14 1 -60q-10 -60 -42 -122l-55 -101
q-38 -74 -38 -100q0 -13 19 -40q71 -103 107 -162l52 -93q1 -6 4 -17z" />
    <glyph glyph-name="y" unicode="y" horiz-adv-x="674" 
d="M361 580zM361 555zM665 43q0 -66 -62 -119q-6 -5 -54 -27q-85 -39 -181 -70q-46 -15 -74 -20q-33 -1 -90 -5q-28 -2 -56 15q-10 6 -27.5 27t-22.5 32.5t-8 16.5q-3 2 -8 6q-6 8 -9 37q-5 49 -5 73q0 47 4 101q2 8 6 22q0 16 13 50q8 11 32 24q31 10 66 10q3 0 9 -1.5
t9 -1.5l65 -5q15 -1 18 -2q11 -3 13 -9q5 -32 20 -83q3 -10 23 -30q2 -1 5 -1q13 0 44 31q8 16 6 42q-2 29 -3 24q0 3 1 6q-2 23 -16 67q-9 16 -16 18q-15 4 -35 4q-25 0 -66 -7q-51 -9 -66 -10q-48 -4 -70 -3q-123 5 -120 112q0 1 -1 1q-8 32 -8 87q0 24 2 64l2 40v73
q0 9 2 10q-1 5 -1 9t1 7q0 1 -2 2q0 2 2 5q1 6 0 18q-2 7 -2 8q3 3 10 9q4 1 12 4q6 7 17 16q31 15 74 20h37q4 0 14 -1q48 -5 62 -58q8 -29 10 -95q3 -78 6 -101q9 -18 46 -25q20 -4 30 -4q14 0 19 7l7 18q7 13 10 78q2 0 3 1q-1 1 -3 32q1 -1 4 -9v0q1 6 -1 16
q-1 -1 -1.5 -3t-1.5 -3q0 7 2 14q0 -3 2 -4q1 2 1 9q0 14 -5 77q0 -8 2 28q1 22 15.5 45t33.5 28q29 8 54 10q74 6 104 -14q2 -1 8 -16q13 -32 19 -64q11 -54 37 -215q1 -6 5 -23q0 -21 5 -60q6 -49 7 -62l8 -109q1 -12 5 -53q3 -33 3 -53v-88z" />
    <glyph glyph-name="z" unicode="z" horiz-adv-x="749" 
d="M748 482q0 -24 -11 -60q-12 -41 -27 -53q-19 -16 -63 -43q-114 -45 -199 -82q-46 -20 -93 -60q-55 -47 -56 -87q0 -3 8 -8q4 -2 20 -6l43 -14q24 -8 46 -8q40 0 51 32q5 10 11 30q0 12 9 49q2 8 10 37q9 24 33 35q11 5 47 13h70l31 -9q47 -22 47 -83q0 -24 -8 -62
q-14 -67 -87 -201q-5 -12 -19 -35q-20 -45 -90 -59q-32 -6 -57 -6q-71 1 -144 20q-41 12 -149 40l-73 17q-41 10 -68 29q-19 13 -28 63q1 10 -1 27q0 -3 1 29q1 41 10 81q1 3 11 27q2 8 7 25q8 14 20 41q9 36 37 66t62 39q5 1 42 26q16 10 91 41q38 15 80 30q1 0 44 12
q25 7 44 19q4 5 17 17q34 32 29 79v13q-6 24 -27.5 45t-45.5 26q-14 3 -46 -9q-44 -16 -61 -61q-6 -16 -16 -75q0 -16 -8 -45q-15 -23 -128 -25q-82 -1 -104 46q-12 26 -20 26q0 20 3 60.5t2 58.5q-1 12 4 24q2 5 -2 5q0 3 5 8q0 4 -3 5q1 -3 4 10q-1 5 -1 13q11 27 12 51
q1 19 27 56q39 39 240 38q44 0 155 -7q183 -11 224 -65q16 -21 22 -53q1 -2 4 -5q2 -6 3 -36l2 -2q7 -49 7 -42v-108zM51 582v8h-4v-8h4zM43 472v11h-3v-11h3z" />
    <glyph glyph-name="glyph77" 
 />
    <glyph glyph-name="glyph78" 
 />
    <glyph glyph-name="glyph78" 
 />
    <glyph glyph-name="glyph79" 
 />
  </font>
</defs>
</svg>
